<mxfile host="app.diagrams.net" agent="Mozilla/5.0 (Macintosh; Intel Mac OS X 10_15_7) AppleWebKit/605.1.15 (KHTML, like Gecko) Version/18.0.1 Safari/605.1.15" version="24.7.17">
  <diagram name="Page-1" id="Keb5-c9A6Bc7pYPaYF4S">
    <mxGraphModel dx="545" dy="675" grid="1" gridSize="10" guides="1" tooltips="1" connect="1" arrows="1" fold="1" page="1" pageScale="1" pageWidth="827" pageHeight="1169" background="none" math="0" shadow="0">
      <root>
        <mxCell id="0" />
        <mxCell id="1" parent="0" />
        <mxCell id="Fz9563_VUl0rCXvXThZZ-4" value="" style="edgeStyle=orthogonalEdgeStyle;rounded=0;orthogonalLoop=1;jettySize=auto;html=1;" edge="1" parent="1" source="Fz9563_VUl0rCXvXThZZ-2" target="Fz9563_VUl0rCXvXThZZ-3">
          <mxGeometry relative="1" as="geometry" />
        </mxCell>
        <mxCell id="Fz9563_VUl0rCXvXThZZ-2" value="Begin" style="rounded=1;whiteSpace=wrap;html=1;" vertex="1" parent="1">
          <mxGeometry x="280" y="100" width="120" height="60" as="geometry" />
        </mxCell>
        <mxCell id="Fz9563_VUl0rCXvXThZZ-6" value="" style="edgeStyle=orthogonalEdgeStyle;rounded=0;orthogonalLoop=1;jettySize=auto;html=1;" edge="1" parent="1" source="Fz9563_VUl0rCXvXThZZ-3" target="Fz9563_VUl0rCXvXThZZ-5">
          <mxGeometry relative="1" as="geometry" />
        </mxCell>
        <mxCell id="Fz9563_VUl0rCXvXThZZ-3" value="Search Item" style="rounded=1;whiteSpace=wrap;html=1;" vertex="1" parent="1">
          <mxGeometry x="280" y="190" width="120" height="60" as="geometry" />
        </mxCell>
        <mxCell id="Fz9563_VUl0rCXvXThZZ-8" value="" style="edgeStyle=orthogonalEdgeStyle;rounded=0;orthogonalLoop=1;jettySize=auto;html=1;" edge="1" parent="1" source="Fz9563_VUl0rCXvXThZZ-9" target="Fz9563_VUl0rCXvXThZZ-7">
          <mxGeometry relative="1" as="geometry" />
        </mxCell>
        <mxCell id="Fz9563_VUl0rCXvXThZZ-12" value="" style="edgeStyle=orthogonalEdgeStyle;rounded=0;orthogonalLoop=1;jettySize=auto;html=1;" edge="1" parent="1" source="Fz9563_VUl0rCXvXThZZ-5" target="Fz9563_VUl0rCXvXThZZ-11">
          <mxGeometry relative="1" as="geometry" />
        </mxCell>
        <mxCell id="Fz9563_VUl0rCXvXThZZ-32" value="" style="edgeStyle=orthogonalEdgeStyle;rounded=0;orthogonalLoop=1;jettySize=auto;html=1;" edge="1" parent="1" source="Fz9563_VUl0rCXvXThZZ-5" target="Fz9563_VUl0rCXvXThZZ-9">
          <mxGeometry relative="1" as="geometry" />
        </mxCell>
        <mxCell id="Fz9563_VUl0rCXvXThZZ-35" style="edgeStyle=orthogonalEdgeStyle;rounded=0;orthogonalLoop=1;jettySize=auto;html=1;exitX=1;exitY=0.5;exitDx=0;exitDy=0;" edge="1" parent="1" source="Fz9563_VUl0rCXvXThZZ-5" target="Fz9563_VUl0rCXvXThZZ-34">
          <mxGeometry relative="1" as="geometry" />
        </mxCell>
        <mxCell id="Fz9563_VUl0rCXvXThZZ-5" value="Update or Delete" style="rhombus;whiteSpace=wrap;html=1;rounded=1;" vertex="1" parent="1">
          <mxGeometry x="300" y="280" width="80" height="80" as="geometry" />
        </mxCell>
        <mxCell id="Fz9563_VUl0rCXvXThZZ-22" value="" style="edgeStyle=orthogonalEdgeStyle;rounded=0;orthogonalLoop=1;jettySize=auto;html=1;" edge="1" parent="1" source="Fz9563_VUl0rCXvXThZZ-7" target="Fz9563_VUl0rCXvXThZZ-21">
          <mxGeometry relative="1" as="geometry" />
        </mxCell>
        <mxCell id="Fz9563_VUl0rCXvXThZZ-7" value="Delete" style="whiteSpace=wrap;html=1;rounded=1;" vertex="1" parent="1">
          <mxGeometry x="190" y="380" width="60" height="60" as="geometry" />
        </mxCell>
        <mxCell id="Fz9563_VUl0rCXvXThZZ-20" value="" style="edgeStyle=orthogonalEdgeStyle;rounded=0;orthogonalLoop=1;jettySize=auto;html=1;" edge="1" parent="1" source="Fz9563_VUl0rCXvXThZZ-9" target="Fz9563_VUl0rCXvXThZZ-19">
          <mxGeometry relative="1" as="geometry" />
        </mxCell>
        <mxCell id="Fz9563_VUl0rCXvXThZZ-16" value="" style="edgeStyle=orthogonalEdgeStyle;rounded=0;orthogonalLoop=1;jettySize=auto;html=1;" edge="1" parent="1" source="Fz9563_VUl0rCXvXThZZ-11" target="Fz9563_VUl0rCXvXThZZ-15">
          <mxGeometry relative="1" as="geometry" />
        </mxCell>
        <mxCell id="Fz9563_VUl0rCXvXThZZ-11" value="Total amount calculation" style="rounded=1;whiteSpace=wrap;html=1;" vertex="1" parent="1">
          <mxGeometry x="280" y="400" width="120" height="60" as="geometry" />
        </mxCell>
        <mxCell id="Fz9563_VUl0rCXvXThZZ-18" value="" style="edgeStyle=orthogonalEdgeStyle;rounded=0;orthogonalLoop=1;jettySize=auto;html=1;" edge="1" parent="1" source="Fz9563_VUl0rCXvXThZZ-15" target="Fz9563_VUl0rCXvXThZZ-17">
          <mxGeometry relative="1" as="geometry" />
        </mxCell>
        <mxCell id="Fz9563_VUl0rCXvXThZZ-15" value="Checkout" style="rounded=1;whiteSpace=wrap;html=1;" vertex="1" parent="1">
          <mxGeometry x="280" y="480" width="120" height="60" as="geometry" />
        </mxCell>
        <mxCell id="Fz9563_VUl0rCXvXThZZ-17" value="End" style="rounded=1;whiteSpace=wrap;html=1;" vertex="1" parent="1">
          <mxGeometry x="280" y="560" width="120" height="60" as="geometry" />
        </mxCell>
        <mxCell id="Fz9563_VUl0rCXvXThZZ-19" value="&lt;strong style=&quot;text-align: start;&quot;&gt;Update Quantity&lt;/strong&gt;" style="whiteSpace=wrap;html=1;rounded=1;" vertex="1" parent="1">
          <mxGeometry x="20" y="290" width="120" height="60" as="geometry" />
        </mxCell>
        <mxCell id="Fz9563_VUl0rCXvXThZZ-21" value="&lt;strong style=&quot;text-align: start;&quot;&gt;Remove Item from Cart&lt;/strong&gt;" style="whiteSpace=wrap;html=1;rounded=1;" vertex="1" parent="1">
          <mxGeometry x="20" y="380" width="120" height="60" as="geometry" />
        </mxCell>
        <mxCell id="Fz9563_VUl0rCXvXThZZ-28" value="Yes" style="text;html=1;align=center;verticalAlign=middle;resizable=0;points=[];autosize=1;strokeColor=none;fillColor=none;" vertex="1" parent="1">
          <mxGeometry x="260" y="290" width="40" height="30" as="geometry" />
        </mxCell>
        <mxCell id="Fz9563_VUl0rCXvXThZZ-29" value="&lt;span style=&quot;caret-color: rgb(0, 0, 0); color: rgb(0, 0, 0); font-family: Helvetica; font-size: 12px; font-style: normal; font-variant-caps: normal; font-weight: 400; letter-spacing: normal; orphans: auto; text-align: center; text-indent: 0px; text-transform: none; white-space: nowrap; widows: auto; word-spacing: 0px; -webkit-text-stroke-width: 0px; background-color: rgb(251, 251, 251); text-decoration: none; display: inline !important; float: none;&quot;&gt;No&lt;/span&gt;" style="text;whiteSpace=wrap;html=1;" vertex="1" parent="1">
          <mxGeometry x="388" y="290" width="50" height="40" as="geometry" />
        </mxCell>
        <mxCell id="Fz9563_VUl0rCXvXThZZ-9" value="Update" style="whiteSpace=wrap;html=1;rounded=1;" vertex="1" parent="1">
          <mxGeometry x="190" y="290" width="60" height="60" as="geometry" />
        </mxCell>
        <mxCell id="Fz9563_VUl0rCXvXThZZ-34" value="Add to the Cart with Quantity and Price" style="rounded=1;whiteSpace=wrap;html=1;" vertex="1" parent="1">
          <mxGeometry x="420" y="290" width="120" height="60" as="geometry" />
        </mxCell>
      </root>
    </mxGraphModel>
  </diagram>
</mxfile>
